# xmcd CD database file
#
# Track frame offsets:
#	150
#	24787
#	48455
#	72048
#	92939
#	113946
#	133721
#	156176
#	173082
#	198356
#	215313
#	229847
#	248685
#	268667
#
# Disc length: 3818 seconds
#
# Revision: 0
# Processed by: cddbd v1.5.1PL2 Copyright (c) Steve Scherf et al.
# Submitted via: CDex 1.51
#
DISCID=bc0ee80e
DTITLE=Various Artist - Fiesta en la 8
DYEAR=2005
DGENRE=Salsa
TTITLE0=Fruko y sus Tesos - Cali de rumba 
TTITLE1=Sonora Caruseles - La rumba buena
TTITLE2=Joe Arroyo y la Verdad - En barranquilla me quedo
TTITLE3=Los Nemus del Pacifico - Castigala
TTITLE4=La Nueva Sonora Matancera - La vida es un carneval
TTITLE5=Gabino Pampini - Mis problemas
TTITLE6=Fruko y sus Tesos - Cachondea
TTITLE7=Luis Alberto - Me encanta como bailas
TTITLE8=Los Titanes - El dia de suerte
TTITLE9=Yolanda Rayo - A San Lazaro (Babalu) 
TTITLE10=Joe Arroyo y la Verdad - Ban Ban
TTITLE11=Galileo y su Banda - Tu carinito 
TTITLE12=Sonora Caruseles - Que suene mi campana
TTITLE13=Los Titanes - Subeme el voltaje nena
EXTD=YEAR: 2005
EXTT0=
EXTT1=
EXTT2=
EXTT3=
EXTT4=
EXTT5=
EXTT6=
EXTT7=
EXTT8=
EXTT9=
EXTT10=
EXTT11=
EXTT12=
EXTT13=
PLAYORDER=
